# xmcd
#
# Track frame offsets:
#	150
#	16420
#	31178
#	48679
#	63746
#	83533
#	99315
#	117743
#	141847
#	159175
#
# Disc length: 2380 seconds
# Revision: 0
# Processed by: cddbd v1.5.2PL0 Copyright (c) Steve Scherf et al.
# Submitted via: dBpowerAMP V12.0
#
DISCID=7e094a0a
DTITLE=Aoife O'Donovan - Fossils
DYEAR=2013
DGENRE=Country
TTITLE0=Lay My Burden Down
TTITLE1=Briar Rose
TTITLE2=Thursday's Child
TTITLE3=Red and White and Blue and Gold
TTITLE4=Beekeeper
TTITLE5=Fire Engine
TTITLE6=Pearls
TTITLE7=Glowing Heart
TTITLE8=I'm Alone
TTITLE9=Oh, Mama
EXTD=
EXTT0=
EXTT1=
EXTT2=
EXTT3=
EXTT4=
EXTT5=
EXTT6=
EXTT7=
EXTT8=
EXTT9=
PLAYORDER=
